<svg xmlns="http://www.w3.org/2000/svg" width="194.9" height="40" viewBox="0 0 194.9 40">
  <g id="Group_16" data-name="Group 16" transform="translate(-4356.036 -2160.866)">
    <g id="Group_15" data-name="Group 15" transform="translate(4408.887 2170.261)">
      <g id="Group_14" data-name="Group 14" transform="translate(0 0)">
        <path id="Path_13" data-name="Path 13" d="M4685.017,2241.326l3.485-21.979h4.521l-2.857,17.928h11.146l-.627,4.051Z" transform="translate(-4685.017 -2219.347)" fill="#fff"/>
        <path id="Path_14" data-name="Path 14" d="M4805,2258.319a7.435,7.435,0,0,1,2.323,5.621,8.473,8.473,0,0,1-2.512,6.091,8.378,8.378,0,0,1-6.249,2.543,8.185,8.185,0,0,1-5.9-2.2,7.547,7.547,0,0,1-2.292-5.683,8.63,8.63,0,0,1,8.729-8.6A8.156,8.156,0,0,1,4805,2258.319Zm-3.234,8.98a4.807,4.807,0,0,0,1.351-3.485,3.742,3.742,0,0,0-3.988-3.862,4.3,4.3,0,0,0-3.2,1.381,4.788,4.788,0,0,0-1.319,3.454,3.749,3.749,0,0,0,3.956,3.925A4.217,4.217,0,0,0,4801.763,2267.3Z" transform="translate(-4773.441 -2250.187)" fill="#fff"/>
        <path id="Path_15" data-name="Path 15" d="M4909.3,2269.623a6.769,6.769,0,0,1-5.149,2.2,6.056,6.056,0,0,1-4.772-2.01,7.482,7.482,0,0,1-1.758-5.024,9.113,9.113,0,0,1,2.229-6.091,7.594,7.594,0,0,1,6-2.606,6.423,6.423,0,0,1,5.212,2.324l.314-1.915h4.427l-2.26,14.38a8.065,8.065,0,0,1-3.485,5.872,11.983,11.983,0,0,1-6.751,1.884,11.286,11.286,0,0,1-6.028-1.35l.628-3.988a9.768,9.768,0,0,0,5.463,1.507,8.428,8.428,0,0,0,2.449-.314,4.456,4.456,0,0,0,3.328-3.768Zm.6-3.737.6-3.893a4.482,4.482,0,0,0-3.893-2.041,4.3,4.3,0,0,0-4.459,4.459,3.514,3.514,0,0,0,3.8,3.611A4.819,4.819,0,0,0,4909.9,2265.886Z" transform="translate(-4863.174 -2250.187)" fill="#fff"/>
        <path id="Path_16" data-name="Path 16" d="M5029.371,2258.319a7.435,7.435,0,0,1,2.323,5.621,8.471,8.471,0,0,1-2.512,6.091,8.378,8.378,0,0,1-6.249,2.543,8.185,8.185,0,0,1-5.9-2.2,7.547,7.547,0,0,1-2.292-5.683,8.63,8.63,0,0,1,8.729-8.6A8.156,8.156,0,0,1,5029.371,2258.319Zm-3.234,8.98a4.809,4.809,0,0,0,1.35-3.485,3.742,3.742,0,0,0-3.988-3.862,4.3,4.3,0,0,0-3.2,1.381,4.79,4.79,0,0,0-1.319,3.454,3.749,3.749,0,0,0,3.956,3.925A4.219,4.219,0,0,0,5026.137,2267.3Z" transform="translate(-4961.769 -2250.187)" fill="#fff"/>
        <path id="Path_17" data-name="Path 17" d="M5127.443,2241.326h-4.427l3.485-21.979h4.427l-1.319,8.132a6.931,6.931,0,0,1,5.212-2.229,5.87,5.87,0,0,1,4.741,2.1,7.783,7.783,0,0,1,1.79,5.212,9.72,9.72,0,0,1-2.292,6.406,7.346,7.346,0,0,1-6,2.763,6.612,6.612,0,0,1-5.306-2.48Zm1.57-9.922-.659,4.176a4.616,4.616,0,0,0,3.956,2.292,4.3,4.3,0,0,0,3.2-1.382,4.914,4.914,0,0,0,1.319-3.485,3.627,3.627,0,0,0-3.768-3.893A5,5,0,0,0,5129.013,2231.4Z" transform="translate(-5052.651 -2219.347)" fill="#fff"/>
        <path id="Path_18" data-name="Path 18" d="M5253.425,2268.681l-.5,3.2a4.314,4.314,0,0,1-2.323.565c-1.916,0-3.046-.659-3.391-1.947a7.2,7.2,0,0,1-5.212,2.072c-3.422,0-5.62-2.01-5.62-4.866a4.838,4.838,0,0,1,1.884-4.051,7.446,7.446,0,0,1,4.616-1.475,10.471,10.471,0,0,1,4.992,1.193,8.727,8.727,0,0,0,.125-1.13c0-1.7-1.319-2.544-3.987-2.544a10.757,10.757,0,0,0-4.71,1.068l.565-3.674a13.958,13.958,0,0,1,5.5-1,8.792,8.792,0,0,1,5.055,1.35,4.689,4.689,0,0,1,2.01,4.208,9.873,9.873,0,0,1-.22,1.884l-.5,3.045c-.094.628-.157,1.036-.157,1.225,0,.69.376,1.036,1.1,1.036A2.491,2.491,0,0,0,5253.425,2268.681Zm-5.966-2.7a5.969,5.969,0,0,0-3.454-.942c-1.884,0-3.234.785-3.234,2.292,0,1.256,1.1,1.884,2.763,1.884a4.927,4.927,0,0,0,3.611-1.6Z" transform="translate(-5147.799 -2250.187)" fill="#fff"/>
        <path id="Path_19" data-name="Path 19" d="M5363.166,2272.166h-4.427l1.256-7.85c.094-.785.157-1.287.157-1.57a2.439,2.439,0,0,0-2.606-2.606,4.566,4.566,0,0,0-3.7,2.1l-1.633,9.922h-4.427l2.449-15.668h4.427l-.283,1.821a6.951,6.951,0,0,1,5.244-2.229c3.171,0,5.118,2.073,5.118,5.212a13.5,13.5,0,0,1-.22,2.261Z" transform="translate(-5241.307 -2250.187)" fill="#fff"/>
        <path id="Path_20" data-name="Path 20" d="M5458.209,2241.326l3.454-21.979h4.458l-1.916,11.869,6.217-5.557h5.62l-8.038,7.347,6.625,8.321h-5.149l-5.746-7-1.1,7Z" transform="translate(-5333.995 -2219.347)" fill="#fff"/>
      </g>
    </g>
    <path id="Path_21" data-name="Path 21" d="M4396.914,2175.172a10.489,10.489,0,0,0-8.471-3.759,12.385,12.385,0,0,0-9.313,3.983l2.356-14.53h-7.91l-4.708,29.693h7.9l1.292-8.15a8.939,8.939,0,0,1,7.237-4.1c3.983,0,6.732,2.749,6.732,6.956a8.784,8.784,0,0,1-2.356,6.227c-1.57,1.626-3.377,2-5.62,2h-18.649l5.2-32.628h-8.229l-6.343,40h28.514c5.683,0,8.773-1.627,11.465-4.937a17.369,17.369,0,0,0,4.1-11.445A13.909,13.909,0,0,0,4396.914,2175.172Z" fill="#fff"/>
    <path id="Path_22" data-name="Path 22" d="M4450.076,2395.248" transform="translate(-78.932 -196.728)" fill="none" stroke="#fff" stroke-miterlimit="10" stroke-width="1"/>
  </g>
</svg>
