<svg xmlns="http://www.w3.org/2000/svg" width="12" height="16" viewBox="0 0 12 16">
  <g id="share-arrow" transform="translate(-47.727 0)">
    <g id="Group_11" data-name="Group 11" transform="translate(47.727 0)">
      <path id="Path_11" data-name="Path 11" d="M59.147,171.954h-2.5a.617.617,0,0,0,0,1.233h1.9v7.3H48.907v-7.3H51a.617.617,0,0,0,0-1.233h-2.7a.626.626,0,0,0-.58.647v8.55a.554.554,0,0,0,.58.565H59.147a.554.554,0,0,0,.58-.565V172.6A.626.626,0,0,0,59.147,171.954Z" transform="translate(-47.727 -165.717)" fill="#200d2b"/>
      <path id="Path_12" data-name="Path 12" d="M116.629,10.862a.606.606,0,0,0,.59-.617V1.89l2.518,2.343a.579.579,0,0,0,.393.154.586.586,0,0,0,.443-.206.638.638,0,0,0-.049-.874L117.13.153a.574.574,0,0,0-.757-.021.605.605,0,0,0-.256.247l-2.941,2.949a.637.637,0,0,0-.02.874.573.573,0,0,0,.836.021l2.046-2.055v8.078A.606.606,0,0,0,116.629,10.862Z" transform="translate(-110.727 0)" fill="#200d2b"/>
    </g>
  </g>
</svg>
