<?xml version="1.0" standalone="no"?>
<!DOCTYPE svg PUBLIC "-//W3C//DTD SVG 20010904//EN"
 "http://www.w3.org/TR/2001/REC-SVG-20010904/DTD/svg10.dtd">
<svg version="1.0" xmlns="http://www.w3.org/2000/svg"
 width="512.000000pt" height="512.000000pt" viewBox="0 0 512.000000 512.000000"
 preserveAspectRatio="xMidYMid meet">
<metadata>
Created by potrace 1.11, written by Peter Selinger 2001-2013
</metadata>
<g transform="translate(0.000000,512.000000) scale(0.100000,-0.100000)"
fill="#000000" stroke="none">
<path d="M0 2560 l0 -2560 2560 0 2560 0 0 2560 0 2560 -2560 0 -2560 0 0
-2560z m2050 1352 c0 -5 -79 -502 -175 -1105 -96 -604 -175 -1099 -175 -1102
0 -3 305 -5 678 -5 724 0 763 3 856 51 195 101 313 379 262 619 -38 181 -142
297 -304 342 -172 47 -359 2 -512 -125 -113 -93 -113 -94 -163 -405 -24 -150
-46 -274 -49 -277 -3 -3 -124 -4 -270 -3 l-264 3 132 835 c73 459 145 913 160
1008 l27 172 268 0 c209 0 269 -3 269 -12 0 -7 -36 -228 -78 -490 -43 -263
-76 -478 -74 -478 2 0 32 26 67 58 75 69 210 142 320 174 70 20 101 23 245 22
151 0 172 -3 245 -27 250 -83 434 -292 512 -583 23 -88 26 -118 27 -269 1
-281 -51 -456 -202 -685 -142 -214 -315 -344 -536 -402 -80 -22 -93 -22 -1169
-25 l-1089 -4 6 28 c3 15 96 600 206 1298 110 699 205 1298 211 1333 l11 62
279 0 c153 0 279 -4 279 -8z"/>
</g>
</svg>
